<?xml version="1.0" encoding="UTF-8" standalone="no"?>
<!-- Created with Inkscape (http://www.inkscape.org/) -->

<svg
   width="110.72812mm"
   height="57.282295mm"
   viewBox="0 0 110.72812 57.282295"
   version="1.1"
   id="svg1"
   xml:space="preserve"
   inkscape:version="1.4.3 (0d15f75042, 2025-12-25)"
   sodipodi:docname="logo.svg"
   xmlns:inkscape="http://www.inkscape.org/namespaces/inkscape"
   xmlns:sodipodi="http://sodipodi.sourceforge.net/DTD/sodipodi-0.dtd"
   xmlns="http://www.w3.org/2000/svg"
   xmlns:svg="http://www.w3.org/2000/svg"><sodipodi:namedview
     id="namedview1"
     pagecolor="#505050"
     bordercolor="#ffffff"
     borderopacity="1"
     inkscape:showpageshadow="0"
     inkscape:pageopacity="0"
     inkscape:pagecheckerboard="1"
     inkscape:deskcolor="#505050"
     inkscape:document-units="mm"
     showborder="true"
     borderlayer="true"
     inkscape:zoom="2"
     inkscape:cx="149.25"
     inkscape:cy="36.5"
     inkscape:window-width="2560"
     inkscape:window-height="1382"
     inkscape:window-x="1920"
     inkscape:window-y="32"
     inkscape:window-maximized="1"
     inkscape:current-layer="layer1"
     showgrid="false" /><defs
     id="defs1" /><g
     inkscape:label="Warstwa 1"
     inkscape:groupmode="layer"
     id="layer1"
     transform="translate(4.6157746,-250.86336)"><path
       style="fill:#1a6b97;stroke-width:0.976606"
       d="M 6.5312919,290.26544 1.8807741,286.3283 v -12.21143 -12.21142 l 4.3362923,-3.66873 4.3362916,-3.66875 1.23573,-2.2e-4 1.235731,-2.2e-4 v 1.00832 1.0083 l -3.9992737,3.38471 -3.999275,3.3847 v 7.24646 7.24647 h 3.5948527 3.594855 v 1.027 1.027 H 8.621123 5.0262703 v 2.52981 2.52978 l 4.268889,3.61298 4.2688877,3.61295 v 1.00831 1.00827 h -1.19112 -1.191118 z m 49.2944131,0.11411 -4.515696,-3.82306 V 274.15625 261.756 l 4.246771,-3.59422 4.246771,-3.59425 h 1.190441 1.190441 v 1.00834 1.00833 l -3.774595,3.19447 -3.774597,3.19447 v 11.18367 11.18369 l 4.044211,3.42275 4.04421,3.42273 v 1.00832 1.0083 h -1.19112 -1.191132 z m 16.96355,-14.66316 v -18.48623 h -1.59583 -1.595827 l -2.470237,2.09206 -2.470238,2.09206 h -1.191407 -1.191408 v -1.00843 -1.00846 l 2.853938,-2.41493 2.853928,-2.41493 h 6.15517 6.155163 l 2.943793,2.49102 2.943782,2.49104 v 1.00841 1.00843 H 84.988695 83.79731 l -2.560144,-2.16814 -2.560156,-2.16813 H 76.946397 75.21578 v 18.48623 18.4862 h -1.213264 -1.213261 z m -34.959948,3.0617 v -15.34846 l -3.999274,-3.38471 -3.999275,-3.3847 v -1.0083 -1.00832 h 1.37019 1.370191 l 4.291703,3.63228 4.291703,3.63229 v 16.03311 c 0,15.98238 -5.68e-4,16.03309 -0.179742,16.03309 -0.09886,0 -0.179743,0.0342 -0.179743,0.0761 0,0.0476 -0.554206,0.0762 -1.482876,0.0762 h -1.482877 z m 10.851584,11.94377 -4.021367,-3.40467 V 270.9804 254.6436 h 1.572752 1.572752 v 15.65279 15.65278 l 3.639788,3.08034 3.63979,3.08033 v 1.00834 1.00835 h -1.191175 -1.191173 z m 35.139738,-0.38035 -4.470761,-3.78502 v -4.86662 -4.86663 l 4.200192,-3.55839 4.200196,-3.5584 h 1.237017 1.237019 v 1.04638 1.04635 l -3.774596,3.19448 -3.774596,3.19448 v 3.53815 3.53814 l 4.04421,3.42273 4.04421,3.42276 v 1.0083 1.00831 h -1.236064 -1.236062 z m -65.044045,2.58652 v -1.04634 l 4.044211,-3.42275 4.044209,-3.42274 V 273.89056 262.7449 l -3.774595,-3.19445 -3.774596,-3.19447 v -0.89424 -0.89421 h 1.325968 1.325968 l 4.111248,3.48073 4.111247,3.48076 -2.56e-4,12.3999 -2.53e-4,12.39991 -4.513901,3.82277 -4.513899,3.82277 h -1.192676 -1.192675 z m -7.369449,-4.60259 v -1.00839 l 3.370176,-2.85205 3.370174,-2.85205 v -1.56024 -1.56024 l -3.864468,-3.27058 -3.864466,-3.27056 v -3.04367 -3.04367 l 3.842386,-3.25186 3.842388,-3.25187 h 1.280279 1.280278 v 1.12249 1.12249 l -3.325239,2.81401 -3.325239,2.81398 v 1.75048 1.75049 l 3.504982,2.96619 3.504981,2.96618 v 3.34898 3.34896 l -3.530094,2.98464 -3.530094,2.98465 h -1.278022 -1.278022 z m 46.822964,-3.57547 v -1.00829 l 4.134084,-3.49884 4.134074,-3.49882 v -6.75198 -6.75196 h 1.572752 1.572752 v 7.43661 7.43661 l -4.516364,3.82249 -4.516374,3.82249 H 59.420561 58.230099 Z M 30.729472,273.32001 v -1.40738 h 3.190432 3.190433 v 1.40738 1.40741 h -3.190433 -3.190432 z m 48.440646,-3.40465 v -1.00828 l 4.313824,-3.651 4.313824,-3.65102 v -3.48072 -3.48074 h 1.572753 1.572751 v 4.20342 4.20342 l -4.65116,3.9366 -4.651171,3.93661 h -1.235405 -1.235416 z"
       id="path1" /><text
       xml:space="preserve"
       style="font-weight:bold;font-size:7.05556px;line-height:1.5;font-family:sans-serif;-inkscape-font-specification:'sans-serif Bold';letter-spacing:0px;word-spacing:0px;writing-mode:lr-tb;direction:ltr;fill:#000000;fill-opacity:1;stroke:none;stroke-width:0.125"
       x="4.9356823"
       y="300.80139"
       id="text1"><tspan
         sodipodi:role="line"
         id="tspan1"
         style="fill:#000000;fill-opacity:1;stroke:none;stroke-width:0.125"
         x="4.9356823"
         y="300.80139" /></text><text
       xml:space="preserve"
       style="font-weight:bold;font-size:9.18008px;line-height:1.5;font-family:sans-serif;-inkscape-font-specification:'sans-serif Bold';letter-spacing:0px;word-spacing:0px;writing-mode:lr-tb;direction:ltr;fill:#1a6d99;fill-opacity:1;stroke:none;stroke-width:0.162638"
       x="-4.0517116"
       y="299.93689"
       id="text2"
       transform="scale(0.98182571,1.0185107)"><tspan
         sodipodi:role="line"
         id="tspan2"
         style="font-style:normal;font-variant:normal;font-weight:normal;font-stretch:normal;font-family:sans-serif;-inkscape-font-specification:sans-serif;fill:#1a6d99;fill-opacity:1;stroke-width:0.162638"
         x="-4.0517116"
         y="299.93689">Engineering &amp; Computing</tspan></text><rect
       style="fill:none;stroke-width:0.125"
       id="rect1"
       width="110.72812"
       height="57.282295"
       x="-4.6157746"
       y="250.86336" /></g></svg>
